<?xml version="1.0" standalone="no"?>
<!DOCTYPE svg PUBLIC "-//W3C//DTD SVG 20010904//EN"
 "http://www.w3.org/TR/2001/REC-SVG-20010904/DTD/svg10.dtd">
<svg version="1.0" xmlns="http://www.w3.org/2000/svg"
 width="300.000000pt" height="300.000000pt" viewBox="0 0 300.000000 300.000000"
 preserveAspectRatio="xMidYMid meet">
<metadata>
Created by potrace 1.10, written by Peter Selinger 2001-2011
</metadata>
<g transform="translate(0.000000,300.000000) scale(0.100000,-0.100000)"
fill="#000000" stroke="none">
<path d="M1332 2990 c-161 -17 -323 -65 -474 -141 -311 -157 -571 -431 -709
-751 -110 -254 -149 -566 -104 -834 52 -305 204 -594 430 -819 118 -117 239
-202 400 -281 231 -113 402 -149 675 -141 144 4 194 10 280 32 584 146 1022
617 1125 1210 20 116 20 355 1 478 -51 313 -197 595 -427 826 -118 118 -235
201 -384 276 -216 107 -349 141 -587 149 -78 3 -180 1 -226 -4z m418 -36 c571
-98 1045 -565 1172 -1157 29 -136 32 -426 5 -560 -60 -298 -193 -544 -411
-763 -232 -232 -480 -361 -797 -415 -217 -37 -469 -14 -686 62 -455 161 -819
560 -938 1028 -52 206 -58 443 -16 648 128 622 647 1101 1270 1173 100 12 283
4 401 -16z"/>
<path d="M1370 2775 c-8 -2 -49 -9 -90 -15 -326 -53 -646 -269 -835 -566 -258
-404 -268 -920 -25 -1325 64 -106 122 -180 137 -177 6 2 406 401 887 888 l875
885 -37 34 c-121 110 -337 214 -534 257 -66 14 -340 29 -378 19z m250 -25
c226 -24 440 -109 621 -247 l49 -37 -48 -49 -48 -48 -165 56 -164 55 -55 61
-55 60 -265 0 -265 0 -60 -66 c-60 -65 -60 -65 -190 -109 -163 -54 -204 -75
-248 -126 -36 -42 -50 -78 -313 -772 -60 -159 -112 -288 -115 -288 -11 0 -29
165 -29 271 0 322 123 625 350 862 215 225 475 350 790 380 71 7 117 6 210 -3z
m62 -214 c-1 -3 -12 -22 -23 -41 l-21 -35 -147 0 -147 0 -26 39 c-14 22 -25
41 -23 43 6 5 390 -1 387 -6z m-338 -194 c58 -95 106 -175 106 -178 0 -2 -13
-25 -29 -50 -29 -47 -29 -47 -41 -23 -7 13 -58 97 -112 187 -107 176 -104 163
-54 219 11 13 20 22 21 20 1 -1 50 -80 109 -175z m447 127 l20 -28 -347 -561
-347 -560 -58 0 -57 0 101 163 c56 89 223 359 372 599 288 466 273 448 316
387z m-555 -259 l122 -199 -213 -343 c-148 -240 -218 -344 -232 -346 -10 -2
-27 6 -38 17 -17 20 -17 33 0 427 11 271 14 409 7 416 -5 5 -18 8 -28 6 -17
-3 -20 -19 -30 -128 -9 -114 -21 -161 -129 -536 l-119 -411 -105 43 c-83 33
-106 46 -105 61 3 36 377 999 401 1031 13 18 36 40 50 49 19 13 268 108 293
112 3 0 60 -89 126 -199z m769 157 c72 -24 128 -48 126 -53 -2 -5 -202 -209
-445 -454 -242 -245 -432 -431 -421 -415 34 53 245 391 425 682 96 156 177
283 180 283 3 0 64 -20 135 -43z m-458 -52 c-29 -46 -54 -84 -57 -85 -3 0 -29
38 -57 85 l-53 85 110 0 109 0 -52 -85z m-717 -555 c0 -54 -2 -60 -21 -60 -15
0 -19 5 -15 18 3 9 10 36 16 60 6 23 13 42 15 42 3 0 5 -27 5 -60z m-28 -250
c-9 -156 0 -210 39 -231 29 -15 25 -105 -11 -218 l-30 -95 -117 -120 c-65 -67
-121 -122 -125 -124 -7 -3 -117 147 -118 161 0 4 14 7 30 7 37 0 77 19 107 52
16 17 49 117 117 353 51 182 98 346 102 365 13 57 15 8 6 -150z m254 -289
c-33 -33 -46 -40 -87 -43 l-49 -3 0 43 0 42 87 0 87 0 -38 -39z m-604 -123
c94 -38 107 -46 102 -63 -21 -77 -80 -106 -143 -69 -34 20 -99 174 -74 174 4
0 56 -19 115 -42z m476 -7 c-30 -38 -40 -39 -27 -1 7 20 18 30 31 30 19 0 19
-1 -4 -29z"/>
<path d="M2307 2178 c-81 -84 -477 -486 -881 -893 -735 -740 -735 -740 -713
-758 153 -125 367 -225 564 -263 107 -21 318 -23 423 -5 167 29 349 103 495
200 91 60 241 205 314 301 106 140 183 316 227 515 26 120 24 349 -5 483 -39
186 -117 362 -222 504 -28 37 -52 68 -53 68 -2 0 -69 -69 -149 -152z m249 -32
c105 -176 163 -369 171 -574 6 -131 -12 -352 -27 -335 -4 4 -44 107 -90 228
-46 121 -125 330 -177 465 l-93 244 57 59 58 58 27 -33 c15 -18 48 -68 74
-112z m-91 -474 c94 -246 170 -453 170 -460 0 -8 -45 -32 -106 -56 l-106 -43
-121 426 c-67 234 -122 437 -122 451 0 16 18 42 52 77 29 29 55 53 58 53 3 0
82 -202 175 -448z m-334 -20 c9 -210 9 -296 2 -303 -17 -17 -407 -13 -412 3
-7 23 -25 28 -96 28 l-70 0 279 285 c153 157 280 284 281 283 2 -2 9 -135 16
-296z m63 116 c8 -29 11 -54 7 -56 -10 -3 6 -66 114 -447 43 -149 85 -283 96
-300 24 -41 55 -58 113 -65 l48 -5 -52 -77 c-52 -77 -204 -248 -212 -238 -14
16 -158 594 -159 640 -2 47 1 59 23 83 14 15 28 38 30 52 8 38 -13 340 -23
343 -9 4 -13 122 -5 122 3 0 11 -24 20 -52z m-534 -523 l0 -74 -156 1 -156 1
68 68 c71 72 71 72 187 76 l57 3 0 -75z m430 -20 l0 -45 -182 0 -183 0 0 45 0
45 183 0 182 0 0 -45z m-370 -81 c0 -18 -26 -18 -33 0 -3 8 -3 16 0 19 9 10
33 -5 33 -19z m950 -17 c0 -36 -50 -133 -77 -149 -56 -35 -122 -14 -142 44 -6
17 -10 32 -9 32 60 27 206 84 216 85 6 1 12 -5 12 -12z m-497 -294 c43 -159
77 -292 77 -298 0 -5 -36 -34 -79 -63 -406 -271 -945 -269 -1348 4 -37 26 -70
48 -71 50 -2 1 1 18 7 36 7 22 86 108 247 268 227 227 234 233 216 185 -11
-27 -52 -139 -92 -249 -60 -166 -70 -200 -59 -211 8 -7 58 -27 112 -45 83 -27
101 -30 112 -19 7 8 57 148 111 312 78 237 100 293 107 275 9 -24 201 -531
212 -560 11 -28 33 -25 218 23 27 7 37 15 37 29 0 11 -52 133 -116 272 -63
139 -118 259 -121 266 -4 9 34 12 174 12 l179 0 77 -287z m-735 265 c-3 -7
-45 -132 -93 -278 -48 -146 -88 -266 -89 -267 -1 -1 -28 8 -62 19 l-60 22 51
140 c29 78 71 194 95 259 l42 117 60 0 c44 0 59 -3 56 -12z m321 -175 c47
-104 99 -219 118 -257 18 -38 32 -70 31 -70 -7 -4 -133 -34 -134 -33 -1 4
-197 523 -202 535 -3 9 11 12 50 12 l53 0 84 -187z"/>
</g>
</svg>
